Coordinates
version=1
nRows=29
nColumns=24
inDegrees=yes

Units are S.I. units (second, meters, Newtons, ...)
Angles are in degrees.

endheader
time	pelvis_tilt	pelvis_list	pelvis_rotation	pelvis_tx	pelvis_ty	pelvis_tz	hip_flexion_r	hip_adduction_r	hip_rotation_r	knee_angle_r	ankle_angle_r	subtalar_angle_r	mtp_angle_r	hip_flexion_l	hip_adduction_l	hip_rotation_l	knee_angle_l	ankle_angle_l	subtalar_angle_l	mtp_angle_l	lumbar_extension	lumbar_bending	lumbar_rotation
      3.16000000	      5.57589737	      7.71869409	     -7.92638404	     -0.58687353	      0.97084041	      0.01156341	    -10.33442213	     -9.52433049	     -7.58162502	    -19.30592195	     18.69954512	      7.17426388	      5.70115539	     16.96491321	      7.34989066	    -21.99888178	     -1.62538573	     -1.07996200	      9.07058550	     41.10226042	    -26.51689844	     -9.60341435	      4.77990650
      3.16500000	      5.63586260	      7.84087122	     -8.04399266	     -0.58104973	      0.97049398	      0.01142254	    -10.69966686	     -9.75259752	     -7.55575717	    -19.38323976	     18.68892284	      7.21162918	      5.81954612	     16.94166409	      7.45842418	    -22.00167408	     -2.21468143	     -1.08340216	      8.30849278	     41.08889494	    -26.53932304	     -9.85884215	      4.75044203
      3.17000000	      5.66984249	      7.97068263	     -8.12107973	     -0.57520421	      0.97016098	      0.01122221	    -11.02309636	     -9.98126531	     -7.56928588	    -19.50002530	     18.62546621	      7.23856719	      6.04856087	     16.93359841	      7.58626317	    -21.90199293	     -2.77813421	     -1.17562487	      7.51362556	     41.13320372	    -26.53831221	    -10.10505447	      4.66502360
      3.17500000	      5.72472267	      8.10215053	     -8.13656743	     -0.56926355	      0.96990783	      0.01092888	    -11.39289093	    -10.20497529	     -7.67136931	    -19.59020892	     18.26683087	      7.19585097	      7.85150947	     16.87741368	      7.74622738	    -21.74718676	     -3.28220364	     -1.42159253	      6.71751281	     42.07667521	    -26.56080976	    -10.32807946	      4.51735469
      3.18000000	      5.71314967	      8.22088256	     -8.21229595	     -0.56348680	      0.96959761	      0.01070618	    -11.58535971	    -10.41533084	     -7.60078396	    -19.84156966	     18.14531907	      7.15921968	      8.19357954	     16.89578724	      7.86300350	    -21.58115338	     -3.77795241	     -1.60584012	      5.98707696	     42.12897754	    -26.51568399	    -10.56009326	      4.44446892
      3.18500000	      5.69376605	      8.36805632	     -8.20588914	     -0.55763723	      0.96934686	      0.01036741	    -11.77573834	    -10.64263058	     -7.65301230	    -20.10936180	     17.86315781	      7.04413509	      9.40926957	     16.90647196	      8.03704531	    -21.36990863	     -4.22535968	     -1.95788124	      5.26609043	     42.64353718	    -26.46799372	    -10.78656277	      4.25341517
      3.19000000	      5.73841934	      8.53100951	     -8.35766804	     -0.55186105	      0.96926112	      0.01023363	    -11.92149205	    -10.92185368	     -7.46885728	    -20.50164899	     17.65607064	      6.88357947	      9.65627988	     16.81802665	      8.20013809	    -21.37135469	     -4.58894820	     -2.29950830	      4.80769739	     42.68595787	    -26.47024840	    -11.10048097	      4.24864665
      3.19500000	      5.68585960	      8.66871462	     -8.36599621	     -0.54608908	      0.96911943	      0.00990433	    -11.96859185	    -11.13588068	     -7.41239533	    -20.92098708	     17.08182120	      6.59891889	     12.09420598	     16.85027299	      8.35330073	    -21.23037874	     -4.99024332	     -2.74620097	      4.16475992	     43.73123558	    -26.39356177	    -11.31999128	      4.08031095
      3.20000000	      5.66964191	      8.82783003	     -8.43651601	     -0.54033383	      0.96910061	      0.00961388	    -11.97496144	    -11.39504570	     -7.25567233	    -21.46116499	     16.73807818	      6.41518997	     12.42867460	     16.82055036	      8.52486659	    -21.06646456	     -5.34602810	     -3.09964406	      3.62602046	     43.74869274	    -26.34520715	    -11.58770947	      3.99484874
      3.20500000	      5.59724325	      8.98400328	     -8.45600459	     -0.53462669	      0.96906604	      0.00930082	    -11.86779220	    -11.62682176	     -7.10714037	    -22.09198172	     16.11380094	      5.98102589	     14.75210980	     16.86569796	      8.68003106	    -20.96957765	     -5.73085004	     -3.52080454	      3.17415275	     44.46642910	    -26.24750891	    -11.83237674	      3.86257866
      3.21000000	      5.49707641	      9.13186229	     -8.42979434	     -0.52896573	      0.96906894	      0.00886500	    -11.67937294	    -11.84827900	     -6.98462186	    -22.83651513	     15.62675686	      5.69102905	     15.55296358	     16.94789020	      8.83504381	    -20.74386952	     -6.14345400	     -3.91627293	      2.61910370	     44.56118532	    -26.13404469	    -12.04185244	      3.71541973
      3.21500000	      5.41788356	      9.27191100	     -8.45945646	     -0.52337580	      0.96916853	      0.00856277	    -11.42532165	    -12.06208746	     -6.72946632	    -23.68534907	     14.96525175	      5.21800745	     17.36776669	     17.02085881	      8.95506199	    -20.66838528	     -6.58690071	     -4.28475323	      2.11862242	     44.86489197	    -26.04264827	    -12.27148408	      3.57967504
      3.22000000	      5.43045236	      9.42153431	     -8.50526925	     -0.51769958	      0.96946762	      0.00826115	    -11.23356675	    -12.30552089	     -6.49306177	    -24.58458277	     14.16702083	      4.69340771	     19.31032562	     16.97560006	      9.09813897	    -20.62153062	     -7.01119903	     -4.57845918	      1.71668519	     45.03124856	    -26.04006111	    -12.52318121	      3.50976370
      3.22500000	      5.29634043	      9.56039577	     -8.46923189	     -0.51215294	      0.96958829	      0.00780852	    -10.79990273	    -12.51074400	     -6.27466918	    -25.66252487	     13.51388522	      4.25718029	     20.13534371	     17.13785185	      9.21221989	    -20.41504583	     -7.54369132	     -4.83555846	      1.13500962	     44.99056488	    -25.90056298	    -12.71487680	      3.39046769
      3.23000000	      5.31508194	      9.68896011	     -8.50864809	     -0.50656254	      0.96999589	      0.00752014	    -10.48239063	    -12.72492589	     -5.97650451	    -26.76010706	     12.52310041	      3.60087047	     22.62724312	     17.11703847	      9.31705186	    -20.38720426	     -8.05593482	     -5.05443618	      0.71016943	     44.94966117	    -25.91484912	    -12.94020107	      3.31165864
      3.23500000	      5.18664490	      9.81777835	     -8.46108434	     -0.50108369	      0.97017976	      0.00704832	     -9.92510322	    -12.91618363	     -5.72489058	    -28.04048996	     11.75686207	      3.08770209	     23.41296772	     17.30302429	      9.41148529	    -20.17002220	     -8.67083510	     -5.20790380	      0.10760318	     44.80487068	    -25.78765063	    -13.11381289	      3.20670032
      3.24000000	      5.21238544	      9.93613095	     -8.48383659	     -0.49554102	      0.97063703	      0.00671467	     -9.49214741	    -13.11761653	     -5.41507866	    -29.32770503	     10.62638153	      2.35968072	     26.00480388	     17.29257971	      9.50399984	    -20.11636335	     -9.24155170	     -5.32127265	     -0.28526502	     44.47283124	    -25.81398097	    -13.31569799	      3.13268373
      3.24500000	      5.14550249	     10.03592640	     -8.45410982	     -0.49010060	      0.97095319	      0.00624889	     -8.89049478	    -13.28327084	     -5.12074723	    -30.75812408	      9.73130323	      1.80464413	     26.51983091	     17.41718957	      9.57656272	    -19.92384286	     -9.88791180	     -5.39811863	     -0.91906191	     44.30164121	    -25.75229168	    -13.46320547	      3.07625392
      3.25000000	      5.07915802	     10.17944429	     -8.44159030	     -0.48460602	      0.97127440	      0.00585095	     -8.23092399	    -13.49483353	     -4.81654263	    -32.23456597	      8.49829268	      1.01664852	     29.29649844	     17.51737350	      9.68312363	    -19.83395557	    -10.49136520	     -5.41423033	     -1.17181660	     43.73256813	    -25.67304299	    -13.66435207	      2.99346044
      3.25500000	      4.96196310	     10.30260340	     -8.38228207	     -0.47924055	      0.97146584	      0.00534296	     -7.45565647	    -13.67059914	     -4.52401264	    -33.83607162	      7.51531677	      0.39596666	     30.19350054	     17.70142439	      9.77683053	    -19.65239103	    -11.15190866	     -5.38859103	     -1.62044816	     43.48174170	    -25.55823109	    -13.81415474	      2.87058560
      3.26000000	      4.98195155	     10.43455991	     -8.38269092	     -0.47376708	      0.97188657	      0.00488966	     -6.81325019	    -13.88380095	     -4.23026783	    -35.39134725	      6.24462917	     -0.36997112	     32.43319722	     17.68077826	      9.90751265	    -19.55146078	    -11.70743958	     -5.32462921	     -1.88757772	     42.88952457	    -25.56542596	    -14.00112299	      2.85652046
      3.26500000	      4.94337134	     10.57014593	     -8.35492211	     -0.46838767	      0.97215603	      0.00439398	     -6.05327752	    -14.08217458	     -3.93046700	    -37.03280083	      5.11368658	     -1.08315940	     33.93851093	     17.73349134	     10.04109925	    -19.42928876	    -12.28055209	     -5.18207337	     -2.16671387	     42.46355423	    -25.51722436	    -14.17159023	      2.78529972
      3.27000000	      4.84574925	     10.70337067	     -8.29530241	     -0.46306281	      0.97232431	      0.00383403	     -5.19565245	    -14.26202167	     -3.64285539	    -38.72163041	      4.08349679	     -1.71386956	     34.48013594	     17.83566831	     10.17824103	    -19.27874846	    -12.82348476	     -5.05844597	     -2.43366521	     42.26846490	    -25.40369925	    -14.31976475	      2.73657236
      3.27500000	      4.71238365	     10.86258759	     -8.24822775	     -0.45779276	      0.97239819	      0.00331856	     -4.25584684	    -14.45702910	     -3.31768539	    -40.42793790	      3.03463170	     -2.35245195	     35.77269908	     17.96435235	     10.33112979	    -19.23155224	    -13.33547177	     -4.87932241	     -2.55287867	     41.84426091	    -25.24851987	    -14.49407396	      2.61738609
      3.28000000	      4.65684380	     11.01592104	     -8.20993627	     -0.45251002	      0.97258150	      0.00277953	     -3.40136398	    -14.65221514	     -3.01241009	    -42.09089297	      1.99065234	     -3.02499351	     37.09357868	     17.96772643	     10.51059101	    -19.17536433	    -13.76800247	     -4.66909728	     -2.66033388	     41.41060331	    -25.16956973	    -14.66369008	      2.54545884
      3.28500000	      4.71212844	     11.14505412	     -8.20595291	     -0.44721636	      0.97294218	      0.00228568	     -2.67368940	    -14.82312845	     -2.68747265	    -43.69662678	      1.06085974	     -3.64230032	     37.61497287	     17.80475705	     10.69581514	    -19.15115349	    -14.10918394	     -4.47472018	     -2.82645402	     41.20052089	    -25.20342885	    -14.82394304	      2.51807352
      3.29000000	      4.62028661	     11.33245530	     -8.10430618	     -0.44194600	      0.97304948	      0.00161999	     -1.78503494	    -15.04871818	     -2.46941956	    -45.29490383	      0.15412310	     -4.22181113	     39.65408642	     17.79574059	     10.94212063	    -19.07442669	    -14.44330500	     -4.21667872	     -2.76432271	     40.48163769	    -25.08486234	    -14.99044008	      2.37278201
      3.29500000	      4.57511751	     11.48967616	     -8.07132229	     -0.43675445	      0.97320383	      0.00110822	     -0.91946790	    -15.21342114	     -2.14035122	    -46.88107161	     -0.42013994	     -4.74813662	     40.01338572	     17.71806315	     11.14829234	    -19.08114510	    -14.73923358	     -3.90647651	     -2.75141908	     40.36140617	    -25.00372596	    -15.15802443	      2.30823808
      3.30000000	      4.51626038	     11.62965278	     -8.03930596	     -0.43162395	      0.97337856	      0.00060736	     -0.03620298	    -15.34263241	     -1.79422181	    -48.41519862	     -0.94047571	     -5.22646515	     40.41304868	     17.63323590	     11.34082365	    -19.11305044	    -14.99022812	     -3.65382305	     -2.77720925	     40.17606925	    -24.91057880	    -15.30200781	      2.22065965
